<svg xmlns="http://www.w3.org/2000/svg" version="1.1" xmlns:xlink="http://www.w3.org/1999/xlink" xmlns:svgjs="http://svgjs.dev/svgjs" viewBox="0 0 12.946320641552648 12.33371849701246"><g transform="matrix(1,0,0,1,1.0529637875731988,9.433129709439264)"><g><path d=" M 0.09 0.9975 L 0.09 0.9735 L 0.2115 0.9135000000000001 L 0.2115 0.09150000000000003 L 0.09 0.031500000000000083 L 0.09 0.007500000000000062 L 0.546 0.007500000000000062 Q 0.714 0.007500000000000062 0.8325 0.06600000000000006 Q 0.9510000000000001 0.12450000000000006 1.01325 0.22650000000000003 Q 1.0755000000000001 0.3285 1.0755000000000001 0.4575 Q 1.0755000000000001 0.5745 1.035 0.6735 Q 0.9945 0.7725000000000001 0.9217500000000001 0.8445 Q 0.849 0.9165000000000001 0.75075 0.9570000000000001 Q 0.6525 0.9975 0.5355 0.9975 L 0.09 0.9975 M 0.5055000000000001 0.09000000000000008 L 0.369 0.09000000000000008 L 0.369 0.915 L 0.528 0.915 Q 0.648 0.915 0.7335 0.86475 Q 0.8190000000000001 0.8145 0.8655 0.7222500000000001 Q 0.912 0.6300000000000001 0.912 0.504 Q 0.912 0.37950000000000006 0.86475 0.28575000000000006 Q 0.8175 0.19200000000000006 0.72675 0.14100000000000001 Q 0.636 0.09000000000000008 0.5055000000000001 0.09000000000000008 M 1.2615087890625 0.9975 L 1.2615087890625 0.9735 L 1.3830087890625 0.9135000000000001 L 1.3830087890625 0.09150000000000003 L 1.2615087890625 0.031500000000000083 L 1.2615087890625 0.007500000000000062 L 2.0145087890625 0.007500000000000062 L 2.0145087890625 0.26550000000000007 L 1.9905087890625 0.26550000000000007 L 1.8930087890625 0.09000000000000008 L 1.5405087890625 0.09000000000000008 L 1.5405087890625 0.4455 L 1.7895087890624999 0.4455 L 1.8660087890625001 0.3195 L 1.8900087890625001 0.3195 L 1.8900087890625001 0.651 L 1.8660087890625001 0.651 L 1.7895087890624999 0.528 L 1.5405087890625 0.528 L 1.5405087890625 0.915 L 1.9335087890625 0.915 L 2.0325087890624998 0.7170000000000001 L 2.0565087890625 0.7170000000000001 L 2.0565087890625 0.9975 L 1.2615087890625 0.9975 M 2.250003662109375 0.9975 L 2.250003662109375 0.9735 L 2.371503662109375 0.9135000000000001 L 2.371503662109375 0.09150000000000003 L 2.250003662109375 0.031500000000000083 L 2.250003662109375 0.007500000000000062 L 2.665503662109375 0.007500000000000062 L 2.665503662109375 0.031500000000000083 L 2.5290036621093748 0.09150000000000003 L 2.5290036621093748 0.915 L 2.884503662109375 0.915 L 2.991003662109375 0.657 L 3.015003662109375 0.657 L 3.015003662109375 0.9975 L 2.250003662109375 0.9975 M 3.317945068359375 0.9975 L 3.317945068359375 0.9735 L 3.469445068359375 0.9135000000000001 L 3.469445068359375 0.09000000000000008 L 3.232445068359375 0.09000000000000008 L 3.125945068359375 0.3165 L 3.101945068359375 0.3165 L 3.101945068359375 0.007500000000000062 L 3.992945068359375 0.007500000000000062 L 3.992945068359375 0.3165 L 3.9689450683593748 0.3165 L 3.8639450683593752 0.09000000000000008 L 3.625445068359375 0.09000000000000008 L 3.625445068359375 0.9135000000000001 L 3.778445068359375 0.9735 L 3.778445068359375 0.9975 L 3.317945068359375 0.9975 M 4.05592529296875 0.9975 L 4.05592529296875 0.9735 L 4.15042529296875 0.924 L 4.53592529296875 0 L 4.61842529296875 0 L 4.99942529296875 0.9195000000000001 L 5.09992529296875 0.9735 L 5.09992529296875 0.9975 L 4.70392529296875 0.9975 L 4.70392529296875 0.9735 L 4.83592529296875 0.921 L 4.72492529296875 0.651 L 4.36342529296875 0.651 L 4.25392529296875 0.9225000000000001 L 4.37992529296875 0.9735 L 4.37992529296875 0.9975 L 4.05592529296875 0.9975 M 4.3979252929687505 0.5685 L 4.69192529296875 0.5685 L 4.54492529296875 0.20700000000000007 L 4.3979252929687505 0.5685 M 5.8003974609375 0.9975 L 5.8003974609375 0.9735 L 5.9518974609375 0.9135000000000001 L 5.9518974609375 0.09000000000000008 L 5.7148974609375 0.09000000000000008 L 5.6083974609375 0.3165 L 5.5843974609375 0.3165 L 5.5843974609375 0.007500000000000062 L 6.4753974609375 0.007500000000000062 L 6.4753974609375 0.3165 L 6.4513974609375 0.3165 L 6.3463974609375 0.09000000000000008 L 6.1078974609375 0.09000000000000008 L 6.1078974609375 0.9135000000000001 L 6.2608974609375 0.9735 L 6.2608974609375 0.9975 L 5.8003974609375 0.9975 M 6.629886474609375 0.9975 L 6.629886474609375 0.9735 L 6.751386474609375 0.9135000000000001 L 6.751386474609375 0.09150000000000003 L 6.629886474609375 0.031500000000000083 L 6.629886474609375 0.007500000000000062 L 7.046886474609375 0.007500000000000062 Q 7.204386474609375 0.007500000000000062 7.295136474609375 0.07274999999999998 Q 7.385886474609375 0.138 7.385886474609375 0.252 Q 7.385886474609375 0.3360000000000001 7.328886474609375 0.4005000000000001 Q 7.271886474609375 0.4650000000000001 7.178886474609375 0.49950000000000006 L 7.462386474609375 0.918 L 7.562886474609375 0.9735 L 7.562886474609375 0.9975 L 7.321386474609375 0.9975 L 7.033386474609375 0.5415000000000001 L 6.908886474609375 0.5415000000000001 L 6.908886474609375 0.912 L 7.021386474609375 0.9735 L 7.021386474609375 0.9975 L 6.629886474609375 0.9975 M 6.997386474609375 0.09000000000000008 L 6.908886474609375 0.09000000000000008 L 6.908886474609375 0.4620000000000001 L 7.006386474609375 0.4620000000000001 Q 7.099386474609375 0.4620000000000001 7.160136474609375 0.40875000000000006 Q 7.220886474609375 0.35550000000000004 7.220886474609375 0.273 Q 7.220886474609375 0.1875 7.1616364746093755 0.13875000000000004 Q 7.102386474609375 0.09000000000000008 6.997386474609375 0.09000000000000008 M 7.591417236328125 0.9975 L 7.591417236328125 0.9735 L 7.685917236328125 0.924 L 8.071417236328125 0 L 8.153917236328125 0 L 8.534917236328125 0.9195000000000001 L 8.635417236328125 0.9735 L 8.635417236328125 0.9975 L 8.239417236328125 0.9975 L 8.239417236328125 0.9735 L 8.371417236328124 0.921 L 8.260417236328125 0.651 L 7.898917236328125 0.651 L 7.789417236328125 0.9225000000000001 L 7.915417236328125 0.9735 L 7.915417236328125 0.9975 L 7.591417236328125 0.9975 M 7.9334172363281255 0.5685 L 8.227417236328126 0.5685 L 8.080417236328126 0.20700000000000007 L 7.9334172363281255 0.5685 M 8.770389404296875 0.9975 L 8.770389404296875 0.9735 L 8.891889404296874 0.9135000000000001 L 8.891889404296874 0.09150000000000003 L 8.770389404296875 0.031500000000000083 L 8.770389404296875 0.007500000000000062 L 9.226389404296874 0.007500000000000062 Q 9.394389404296875 0.007500000000000062 9.512889404296875 0.06600000000000006 Q 9.631389404296876 0.12450000000000006 9.693639404296874 0.22650000000000003 Q 9.755889404296875 0.3285 9.755889404296875 0.4575 Q 9.755889404296875 0.5745 9.715389404296875 0.6735 Q 9.674889404296875 0.7725000000000001 9.602139404296874 0.8445 Q 9.529389404296875 0.9165000000000001 9.431139404296875 0.9570000000000001 Q 9.332889404296875 0.9975 9.215889404296876 0.9975 L 8.770389404296875 0.9975 M 9.185889404296875 0.09000000000000008 L 9.049389404296875 0.09000000000000008 L 9.049389404296875 0.915 L 9.208389404296875 0.915 Q 9.328389404296875 0.915 9.413889404296874 0.86475 Q 9.499389404296876 0.8145 9.545889404296876 0.7222500000000001 Q 9.592389404296876 0.6300000000000001 9.592389404296876 0.504 Q 9.592389404296876 0.37950000000000006 9.545139404296876 0.28575000000000006 Q 9.497889404296876 0.19200000000000006 9.407139404296874 0.14100000000000001 Q 9.316389404296874 0.09000000000000008 9.185889404296875 0.09000000000000008 M 9.941898193359375 0.9975 L 9.941898193359375 0.9735 L 10.063398193359374 0.9135000000000001 L 10.063398193359374 0.09150000000000003 L 9.941898193359375 0.031500000000000083 L 9.941898193359375 0.007500000000000062 L 10.694898193359375 0.007500000000000062 L 10.694898193359375 0.26550000000000007 L 10.670898193359376 0.26550000000000007 L 10.573398193359376 0.09000000000000008 L 10.220898193359375 0.09000000000000008 L 10.220898193359375 0.4455 L 10.469898193359375 0.4455 L 10.546398193359375 0.3195 L 10.570398193359376 0.3195 L 10.570398193359376 0.651 L 10.546398193359375 0.651 L 10.469898193359375 0.528 L 10.220898193359375 0.528 L 10.220898193359375 0.915 L 10.613898193359375 0.915 L 10.712898193359376 0.7170000000000001 L 10.736898193359375 0.7170000000000001 L 10.736898193359375 0.9975 L 9.941898193359375 0.9975" fill="#322430" fill-rule="nonzero"></path></g><g><path d=" M 4.134489990234375 1.8476249999999999 Q 4.062489990234375 1.8476249999999999 4.005864990234375 1.8161249999999998 Q 3.949239990234375 1.7846249999999997 3.916989990234375 1.7302499999999998 Q 3.884739990234375 1.6758749999999998 3.884739990234375 1.6061249999999998 Q 3.884739990234375 1.5483749999999998 3.905364990234375 1.4996249999999998 Q 3.925989990234375 1.450875 3.963114990234375 1.4144999999999999 Q 4.000239990234375 1.3781249999999998 4.048239990234375 1.3578749999999997 Q 4.096239990234375 1.3376249999999996 4.151739990234375 1.3376249999999996 Q 4.190739990234375 1.3376249999999996 4.218489990234374 1.3421249999999998 Q 4.246239990234375 1.3466249999999997 4.2679899902343745 1.3548749999999998 Q 4.289739990234375 1.3631249999999997 4.311489990234375 1.3736249999999997 L 4.3152399902343745 1.497375 L 4.303239990234375 1.497375 L 4.254489990234375 1.4133749999999998 Q 4.222989990234375 1.391625 4.200864990234375 1.3833749999999998 Q 4.178739990234375 1.3751249999999997 4.1502399902343745 1.3751249999999997 Q 4.092489990234375 1.3751249999999997 4.047489990234375 1.4002499999999998 Q 4.002489990234375 1.4253749999999998 3.976989990234375 1.4692499999999997 Q 3.951489990234375 1.5131249999999998 3.951489990234375 1.5686249999999997 Q 3.951489990234375 1.6436249999999997 3.978864990234375 1.6961249999999999 Q 4.006239990234375 1.7486249999999999 4.052739990234375 1.7763749999999998 Q 4.099239990234375 1.8041249999999998 4.156239990234375 1.8041249999999998 Q 4.180989990234375 1.8041249999999998 4.203864990234375 1.8011249999999999 Q 4.226739990234375 1.7981249999999998 4.251489990234375 1.7883749999999998 L 4.251489990234375 1.6646249999999998 L 4.184739990234375 1.6346249999999998 L 4.184739990234375 1.6226249999999998 L 4.370739990234375 1.6226249999999998 L 4.370739990234375 1.6346249999999998 L 4.318989990234375 1.6668749999999997 L 4.318989990234375 1.7846249999999997 Q 4.284489990234375 1.8131249999999999 4.233864990234375 1.8303749999999999 Q 4.183239990234375 1.8476249999999999 4.134489990234375 1.8476249999999999 M 4.4581190185546875 1.8401249999999998 L 4.4581190185546875 1.8281249999999998 L 4.518119018554687 1.7981249999999998 L 4.518119018554687 1.3871249999999997 L 4.4581190185546875 1.357125 L 4.4581190185546875 1.345125 L 4.653119018554688 1.345125 L 4.653119018554688 1.357125 L 4.585619018554687 1.3871249999999997 L 4.585619018554687 1.7988749999999998 L 4.767869018554688 1.7988749999999998 L 4.818869018554688 1.6736249999999997 L 4.830869018554687 1.6736249999999997 L 4.830869018554687 1.8401249999999998 L 4.4581190185546875 1.8401249999999998 M 5.18675830078125 1.8476249999999999 Q 5.13275830078125 1.8476249999999999 5.08738330078125 1.8284999999999998 Q 5.04200830078125 1.8093749999999997 5.00825830078125 1.7752499999999998 Q 4.97450830078125 1.7411249999999998 4.95575830078125 1.6946249999999998 Q 4.93700830078125 1.6481249999999998 4.93700830078125 1.5926249999999997 Q 4.93700830078125 1.5371249999999999 4.95575830078125 1.4906249999999996 Q 4.97450830078125 1.4441249999999997 5.00825830078125 1.4099999999999997 Q 5.04200830078125 1.3758749999999997 5.08738330078125 1.35675 Q 5.13275830078125 1.3376249999999996 5.18675830078125 1.3376249999999996 Q 5.24075830078125 1.3376249999999996 5.28650830078125 1.35675 Q 5.33225830078125 1.3758749999999997 5.36600830078125 1.4099999999999997 Q 5.39975830078125 1.4441249999999997 5.41850830078125 1.4906249999999996 Q 5.43725830078125 1.5371249999999999 5.43725830078125 1.5926249999999997 Q 5.43725830078125 1.6481249999999998 5.41850830078125 1.6946249999999998 Q 5.39975830078125 1.7411249999999998 5.36600830078125 1.7752499999999998 Q 5.33225830078125 1.8093749999999997 5.28650830078125 1.8284999999999998 Q 5.24075830078125 1.8476249999999999 5.18675830078125 1.8476249999999999 M 5.20250830078125 1.8101249999999998 Q 5.25050830078125 1.8101249999999998 5.28688330078125 1.7861249999999997 Q 5.32325830078125 1.7621249999999997 5.34388330078125 1.7186249999999998 Q 5.3645083007812495 1.6751249999999998 5.3645083007812495 1.6158749999999997 Q 5.3645083007812495 1.5431249999999999 5.33900830078125 1.4887499999999998 Q 5.31350830078125 1.4343749999999997 5.27038330078125 1.4043749999999997 Q 5.22725830078125 1.3743749999999997 5.17400830078125 1.3743749999999997 Q 5.12600830078125 1.3743749999999997 5.08888330078125 1.3979999999999997 Q 5.05175830078125 1.4216249999999997 5.03075830078125 1.4651249999999998 Q 5.00975830078125 1.5086249999999999 5.00975830078125 1.567875 Q 5.00975830078125 1.6406249999999998 5.03563330078125 1.6953749999999999 Q 5.06150830078125 1.7501249999999997 5.10500830078125 1.7801249999999997 Q 5.14850830078125 1.8101249999999998 5.20250830078125 1.8101249999999998 M 5.539638427734375 1.8401249999999998 L 5.539638427734375 1.8281249999999998 L 5.599638427734375 1.7981249999999998 L 5.599638427734375 1.3871249999999997 L 5.539638427734375 1.357125 L 5.539638427734375 1.345125 L 5.729388427734375 1.345125 Q 5.778888427734375 1.345125 5.818263427734375 1.3574999999999997 Q 5.857638427734375 1.3698749999999997 5.880138427734375 1.3942499999999998 Q 5.902638427734375 1.4186249999999998 5.902638427734375 1.4561249999999997 Q 5.902638427734375 1.4943749999999998 5.877138427734375 1.5262499999999997 Q 5.851638427734375 1.5581249999999998 5.803638427734375 1.5716249999999998 Q 5.870388427734375 1.5806249999999997 5.907888427734375 1.6132499999999999 Q 5.945388427734375 1.6458749999999998 5.945388427734375 1.6961249999999999 Q 5.945388427734375 1.7373749999999997 5.919513427734375 1.7699999999999998 Q 5.893638427734375 1.8026249999999997 5.848638427734375 1.8213749999999997 Q 5.803638427734375 1.8401249999999998 5.746638427734375 1.8401249999999998 L 5.539638427734375 1.8401249999999998 M 5.712138427734375 1.3863749999999997 L 5.667138427734375 1.3863749999999997 L 5.667138427734375 1.5641249999999998 L 5.716638427734375 1.5641249999999998 Q 5.769888427734375 1.5641249999999998 5.799888427734375 1.5412499999999998 Q 5.829888427734375 1.5183749999999998 5.829888427734375 1.4771249999999998 Q 5.829888427734375 1.3863749999999997 5.712138427734375 1.3863749999999997 M 5.740638427734375 1.6053749999999998 L 5.667138427734375 1.6053749999999998 L 5.667138427734375 1.7988749999999998 L 5.745888427734375 1.7988749999999998 Q 5.805138427734375 1.7988749999999998 5.838888427734375 1.7718749999999999 Q 5.872638427734375 1.7448749999999997 5.872638427734375 1.7021249999999997 Q 5.872638427734375 1.6511249999999997 5.838513427734375 1.6282499999999998 Q 5.804388427734375 1.6053749999999998 5.740638427734375 1.6053749999999998 M 5.995263793945313 1.8401249999999998 L 5.995263793945313 1.8281249999999998 L 6.043263793945313 1.8033749999999997 L 6.235263793945313 1.3413749999999998 L 6.269013793945312 1.3413749999999998 L 6.458013793945312 1.8011249999999999 L 6.5082637939453125 1.8281249999999998 L 6.5082637939453125 1.8401249999999998 L 6.322263793945313 1.8401249999999998 L 6.322263793945313 1.8281249999999998 L 6.388263793945312 1.8026249999999997 L 6.332013793945313 1.6638749999999998 L 6.149763793945312 1.6638749999999998 L 6.094263793945313 1.8026249999999997 L 6.1572637939453125 1.8281249999999998 L 6.1572637939453125 1.8401249999999998 L 5.995263793945313 1.8401249999999998 M 6.167013793945313 1.6226249999999998 L 6.315513793945312 1.6226249999999998 L 6.241263793945312 1.4381249999999999 L 6.167013793945313 1.6226249999999998 M 6.582888793945313 1.8401249999999998 L 6.582888793945313 1.8281249999999998 L 6.642888793945312 1.7981249999999998 L 6.642888793945312 1.3871249999999997 L 6.582888793945313 1.357125 L 6.582888793945313 1.345125 L 6.777888793945313 1.345125 L 6.777888793945313 1.357125 L 6.710388793945312 1.3871249999999997 L 6.710388793945312 1.7988749999999998 L 6.892638793945313 1.7988749999999998 L 6.943638793945313 1.6736249999999997 L 6.955638793945313 1.6736249999999997 L 6.955638793945313 1.8401249999999998 L 6.582888793945313 1.8401249999999998" fill="#322725" fill-rule="nonzero"></path></g><g clip-path="url(#SvgjsClipPath1002)"><g clip-path="url(#SvgjsClipPath10016b93fd5d-88c2-4141-9faf-3fbd2b3ddcc8)"><path d=" M 10.114224424461376 -0.25 L 9.685124907703894 -0.9925694129557057 L 3.728528500628067 -0.9925694129557057 L 4.15762801738555 -1.7358072052210014 L 5.801841118979639 -1.7358072052210014 L 5.372741602222157 -2.478376618176707 L 3.728528500628067 -2.478376618176707 L 2.4418983296652117 -0.25 L 10.114224424461376 -0.25 Z" fill="#f5c271" transform="matrix(1,0,0,1,0,0)" fill-rule="evenodd"></path></g><g clip-path="url(#SvgjsClipPath10016b93fd5d-88c2-4141-9faf-3fbd2b3ddcc8)"><path d=" M 0.7261686419448736 -0.25 L 1.5836992961502467 -0.25 L 4.561997499688161 -5.408551511424061 L 4.991097016445643 -4.665313719158766 L 4.168990465648598 -3.241665789729736 L 5.027189499163562 -3.241665789729736 L 5.849296049960607 -4.665313719158766 L 4.562665878997752 -6.894358716645062 L 0.7261686419448736 -0.25 Z" fill="#f05d65" transform="matrix(1,0,0,1,0,0)" fill-rule="evenodd"></path></g><g clip-path="url(#SvgjsClipPath10016b93fd5d-88c2-4141-9faf-3fbd2b3ddcc8)"><path d=" M 5.420196533203125 -8.380165921866064 L 4.991097016445643 -7.636928129600768 L 7.969395219983556 -2.478376618176707 L 7.111864565778183 -2.478376618176707 L 6.289758014981137 -3.902024547605736 L 5.860658498223656 -3.159455134650032 L 6.682765049020702 -1.7358072052210014 L 9.256025390946412 -1.7358072052210014 L 5.420196533203125 -8.380165921866064 Z" fill="#17b9a2" transform="matrix(1,0,0,1,0,0)" fill-rule="evenodd"></path></g></g></g><defs><clipPath id="SvgjsClipPath1002"><path d=" M 0.7261686419448736 -8.380165921866064 h 9.388055782516503 v 8.130165921866064 h -9.388055782516503 Z"></path></clipPath><clipPath id="SvgjsClipPath10016b93fd5d-88c2-4141-9faf-3fbd2b3ddcc8"><path d=" M 0.7261686419448736 -8.380165921866064 L 10.114224424461376 -8.380165921866064 L 10.114224424461376 -0.25 L 0.7261686419448736 -0.25 Z"></path></clipPath></defs></svg>