<svg xmlns="http://www.w3.org/2000/svg" version="1.1" xmlns:xlink="http://www.w3.org/1999/xlink" xmlns:svgjs="http://svgjs.dev/svgjs" viewBox="0 0 10.987799667733583 2.917666238364966"><g transform="matrix(1,0,0,1,0.45090826344598245,0.6661956191824829)"><g><path d=" M 0.07386000000000001 0.8186150000000001 L 0.07386000000000001 0.798919 L 0.173571 0.7496790000000001 L 0.173571 0.07509100000000002 L 0.07386000000000001 0.02585100000000007 L 0.07386000000000001 0.0061550000000000216 L 0.44808400000000004 0.0061550000000000216 Q 0.585956 0.0061550000000000216 0.6832050000000001 0.05416399999999999 Q 0.7804540000000001 0.10217300000000007 0.8315405000000001 0.18588100000000007 Q 0.882627 0.2695890000000001 0.882627 0.37545500000000004 Q 0.882627 0.4714730000000001 0.8493900000000001 0.5527190000000001 Q 0.816153 0.6339650000000001 0.7564495000000001 0.6930530000000001 Q 0.6967460000000001 0.7521410000000001 0.6161155 0.7853780000000001 Q 0.5354850000000001 0.8186150000000001 0.43946700000000005 0.8186150000000001 L 0.07386000000000001 0.8186150000000001 M 0.414847 0.07386000000000004 L 0.30282600000000004 0.07386000000000004 L 0.30282600000000004 0.7509100000000001 L 0.43331200000000003 0.7509100000000001 Q 0.531792 0.7509100000000001 0.601959 0.7096715000000001 Q 0.6721260000000001 0.668433 0.7102870000000001 0.5927265 Q 0.7484480000000001 0.51702 0.7484480000000001 0.41361600000000004 Q 0.7484480000000001 0.311443 0.7096715 0.23450550000000003 Q 0.670895 0.15756800000000004 0.5964195000000001 0.11571399999999998 Q 0.5219440000000001 0.07386000000000004 0.414847 0.07386000000000004 M 1.034047212890625 0.8186150000000001 L 1.034047212890625 0.798919 L 1.133758212890625 0.7496790000000001 L 1.133758212890625 0.07509100000000002 L 1.034047212890625 0.02585100000000007 L 1.034047212890625 0.0061550000000000216 L 1.6520092128906252 0.0061550000000000216 L 1.6520092128906252 0.21788700000000005 L 1.632313212890625 0.21788700000000005 L 1.552298212890625 0.07386000000000004 L 1.263013212890625 0.07386000000000004 L 1.263013212890625 0.36560700000000007 L 1.4673592128906252 0.36560700000000007 L 1.530140212890625 0.2622030000000001 L 1.5498362128906251 0.2622030000000001 L 1.5498362128906251 0.534254 L 1.530140212890625 0.534254 L 1.4673592128906252 0.4333120000000001 L 1.263013212890625 0.4333120000000001 L 1.263013212890625 0.7509100000000001 L 1.585535212890625 0.7509100000000001 L 1.666781212890625 0.5884180000000001 L 1.6864772128906251 0.5884180000000001 L 1.6864772128906251 0.8186150000000001 L 1.034047212890625 0.8186150000000001 M 1.8440410053710938 0.8186150000000001 L 1.8440410053710938 0.798919 L 1.9437520053710937 0.7496790000000001 L 1.9437520053710937 0.07509100000000002 L 1.8440410053710938 0.02585100000000007 L 1.8440410053710938 0.0061550000000000216 L 2.1850280053710938 0.0061550000000000216 L 2.1850280053710938 0.02585100000000007 L 2.073007005371094 0.07509100000000002 L 2.073007005371094 0.7509100000000001 L 2.364754005371094 0.7509100000000001 L 2.452155005371094 0.539178 L 2.471851005371094 0.539178 L 2.471851005371094 0.8186150000000001 L 1.8440410053710938 0.8186150000000001 M 2.7192339194335937 0.8186150000000001 L 2.7192339194335937 0.798919 L 2.843564919433594 0.7496790000000001 L 2.843564919433594 0.07386000000000004 L 2.6490669194335936 0.07386000000000004 L 2.561665919433594 0.259741 L 2.5419699194335936 0.259741 L 2.5419699194335936 0.0061550000000000216 L 3.2731839194335937 0.0061550000000000216 L 3.2731839194335937 0.259741 L 3.253487919433594 0.259741 L 3.167317919433594 0.07386000000000004 L 2.971588919433594 0.07386000000000004 L 2.971588919433594 0.7496790000000001 L 3.0971509194335938 0.798919 L 3.0971509194335938 0.8186150000000001 L 2.7192339194335937 0.8186150000000001 M 3.3236386904296875 0.8186150000000001 L 3.3236386904296875 0.798919 L 3.4011916904296875 0.7582960000000001 L 3.7175586904296876 0 L 3.7852636904296877 0 L 4.097937690429688 0.7546030000000001 L 4.1804146904296875 0.798919 L 4.1804146904296875 0.8186150000000001 L 3.855430690429688 0.8186150000000001 L 3.855430690429688 0.798919 L 3.9637586904296875 0.7558340000000001 L 3.8726646904296875 0.534254 L 3.5759936904296876 0.534254 L 3.486130690429688 0.7570650000000001 L 3.5895346904296876 0.798919 L 3.5895346904296876 0.8186150000000001 L 3.3236386904296875 0.8186150000000001 M 3.604306690429688 0.46654900000000005 L 3.845582690429688 0.46654900000000005 L 3.7249446904296875 0.16987800000000008 L 3.604306690429688 0.46654900000000005" fill="#322430" fill-rule="nonzero"></path></g><g><path d=" M 5.954750747286931 0.8186150000000001 L 5.954750747286931 0.798919 L 6.0790817472869305 0.7496790000000001 L 6.0790817472869305 0.07386000000000004 L 5.88458374728693 0.07386000000000004 L 5.79718274728693 0.259741 L 5.777486747286931 0.259741 L 5.777486747286931 0.0061550000000000216 L 6.50870074728693 0.0061550000000000216 L 6.50870074728693 0.259741 L 6.4890047472869306 0.259741 L 6.4028347472869305 0.07386000000000004 L 6.20710574728693 0.07386000000000004 L 6.20710574728693 0.7496790000000001 L 6.33266774728693 0.798919 L 6.33266774728693 0.8186150000000001 L 5.954750747286931 0.8186150000000001 M 6.634253731173649 0.8186150000000001 L 6.634253731173649 0.798919 L 6.733964731173649 0.7496790000000001 L 6.733964731173649 0.07509100000000002 L 6.634253731173649 0.02585100000000007 L 6.634253731173649 0.0061550000000000216 L 6.976471731173649 0.0061550000000000216 Q 7.105726731173649 0.0061550000000000216 7.1802022311736495 0.05970350000000002 Q 7.254677731173649 0.11325200000000002 7.254677731173649 0.206808 Q 7.254677731173649 0.2757440000000001 7.207899731173649 0.32867700000000005 Q 7.161121731173649 0.38161000000000006 7.084799731173649 0.40992300000000004 L 7.317458731173649 0.753372 L 7.399935731173649 0.798919 L 7.399935731173649 0.8186150000000001 L 7.201744731173649 0.8186150000000001 L 6.965392731173649 0.44439100000000004 L 6.863219731173649 0.44439100000000004 L 6.863219731173649 0.7484480000000001 L 6.955544731173649 0.798919 L 6.955544731173649 0.8186150000000001 L 6.634253731173649 0.8186150000000001 M 6.935848731173649 0.07386000000000004 L 6.863219731173649 0.07386000000000004 L 6.863219731173649 0.37914800000000004 L 6.943234731173649 0.37914800000000004 Q 7.019556731173649 0.37914800000000004 7.069412231173649 0.33544750000000007 Q 7.119267731173649 0.2917470000000001 7.119267731173649 0.22404200000000007 Q 7.119267731173649 0.15387499999999998 7.07064323117365 0.11386750000000001 Q 7.022018731173649 0.07386000000000004 6.935848731173649 0.07386000000000004 M 7.422118976290837 0.8186150000000001 L 7.422118976290837 0.798919 L 7.499671976290837 0.7582960000000001 L 7.816038976290837 0 L 7.883743976290837 0 L 8.196417976290837 0.7546030000000001 L 8.278894976290838 0.798919 L 8.278894976290838 0.8186150000000001 L 7.953910976290837 0.8186150000000001 L 7.953910976290837 0.798919 L 8.062238976290837 0.7558340000000001 L 7.971144976290837 0.534254 L 7.674473976290837 0.534254 L 7.584610976290837 0.7570650000000001 L 7.688014976290837 0.798919 L 7.688014976290837 0.8186150000000001 L 7.422118976290837 0.8186150000000001 M 7.702786976290837 0.46654900000000005 L 7.944062976290837 0.46654900000000005 L 7.823424976290837 0.16987800000000008 L 7.702786976290837 0.46654900000000005 M 8.388431135470524 0.8186150000000001 L 8.388431135470524 0.798919 L 8.488142135470525 0.7496790000000001 L 8.488142135470525 0.07509100000000002 L 8.388431135470524 0.02585100000000007 L 8.388431135470524 0.0061550000000000216 L 8.762655135470524 0.0061550000000000216 Q 8.900527135470524 0.0061550000000000216 8.997776135470524 0.05416399999999999 Q 9.095025135470525 0.10217300000000007 9.146111635470525 0.18588100000000007 Q 9.197198135470524 0.2695890000000001 9.197198135470524 0.37545500000000004 Q 9.197198135470524 0.4714730000000001 9.163961135470524 0.5527190000000001 Q 9.130724135470524 0.6339650000000001 9.071020635470525 0.6930530000000001 Q 9.011317135470524 0.7521410000000001 8.930686635470524 0.7853780000000001 Q 8.850056135470524 0.8186150000000001 8.754038135470525 0.8186150000000001 L 8.388431135470524 0.8186150000000001 M 8.729418135470524 0.07386000000000004 L 8.617397135470524 0.07386000000000004 L 8.617397135470524 0.7509100000000001 L 8.747883135470525 0.7509100000000001 Q 8.846363135470524 0.7509100000000001 8.916530135470525 0.7096715000000001 Q 8.986697135470525 0.668433 9.024858135470524 0.5927265 Q 9.063019135470524 0.51702 9.063019135470524 0.41361600000000004 Q 9.063019135470524 0.311443 9.024242635470525 0.23450550000000003 Q 8.985466135470524 0.15756800000000004 8.910990635470524 0.11571399999999998 Q 8.836515135470524 0.07386000000000004 8.729418135470524 0.07386000000000004 M 9.34861834836115 0.8186150000000001 L 9.34861834836115 0.798919 L 9.44832934836115 0.7496790000000001 L 9.44832934836115 0.07509100000000002 L 9.34861834836115 0.02585100000000007 L 9.34861834836115 0.0061550000000000216 L 9.96658034836115 0.0061550000000000216 L 9.96658034836115 0.21788700000000005 L 9.94688434836115 0.21788700000000005 L 9.86686934836115 0.07386000000000004 L 9.57758434836115 0.07386000000000004 L 9.57758434836115 0.36560700000000007 L 9.78193034836115 0.36560700000000007 L 9.84471134836115 0.2622030000000001 L 9.86440734836115 0.2622030000000001 L 9.86440734836115 0.534254 L 9.84471134836115 0.534254 L 9.78193034836115 0.4333120000000001 L 9.57758434836115 0.4333120000000001 L 9.57758434836115 0.7509100000000001 L 9.90010634836115 0.7509100000000001 L 9.98135234836115 0.5884180000000001 L 10.00104834836115 0.5884180000000001 L 10.00104834836115 0.8186150000000001 L 9.34861834836115 0.8186150000000001" fill="#322430" fill-rule="nonzero"></path></g><g><path d=" M 4.244623314952059 1.804542355736501 Q 4.206415314952059 1.804542355736501 4.176366314952059 1.7878263557365008 Q 4.146317314952059 1.7711103557365009 4.129203314952059 1.7422553557365008 Q 4.112089314952059 1.713400355736501 4.112089314952059 1.6763863557365009 Q 4.112089314952059 1.645740355736501 4.123034314952059 1.6198703557365008 Q 4.133979314952059 1.594000355736501 4.153680314952059 1.574697355736501 Q 4.173381314952059 1.5553943557365009 4.198853314952059 1.544648355736501 Q 4.2243253149520585 1.533902355736501 4.253777314952059 1.533902355736501 Q 4.274473314952059 1.533902355736501 4.289199314952059 1.5362903557365009 Q 4.303925314952059 1.538678355736501 4.315467314952059 1.543056355736501 Q 4.3270093149520585 1.547434355736501 4.338551314952059 1.5530063557365008 L 4.340541314952059 1.618676355736501 L 4.334173314952059 1.618676355736501 L 4.308303314952059 1.574100355736501 Q 4.291587314952059 1.5625583557365008 4.279846314952059 1.5581803557365008 Q 4.2681053149520585 1.5538023557365008 4.252981314952059 1.5538023557365008 Q 4.222335314952058 1.5538023557365008 4.198455314952059 1.5671353557365009 Q 4.174575314952059 1.580468355736501 4.1610433149520585 1.6037513557365008 Q 4.147511314952059 1.6270343557365008 4.147511314952059 1.6564863557365008 Q 4.147511314952059 1.6962863557365009 4.162038314952059 1.7241463557365009 Q 4.176565314952059 1.7520063557365009 4.201241314952059 1.766732355736501 Q 4.225917314952059 1.781458355736501 4.256165314952058 1.781458355736501 Q 4.269299314952058 1.781458355736501 4.281438314952059 1.7798663557365009 Q 4.293577314952059 1.7782743557365008 4.306711314952059 1.7731003557365008 L 4.306711314952059 1.707430355736501 L 4.2712893149520585 1.691510355736501 L 4.2712893149520585 1.6851423557365008 L 4.369993314952059 1.6851423557365008 L 4.369993314952059 1.691510355736501 L 4.342531314952058 1.7086243557365008 L 4.342531314952058 1.7711103557365009 Q 4.324223314952059 1.786234355736501 4.297358314952059 1.795388355736501 Q 4.270493314952059 1.804542355736501 4.244623314952059 1.804542355736501 M 4.4627971126473716 1.800562355736501 L 4.4627971126473716 1.794194355736501 L 4.494637112647371 1.7782743557365008 L 4.494637112647371 1.560170355736501 L 4.4627971126473716 1.5442503557365008 L 4.4627971126473716 1.537882355736501 L 4.566277112647371 1.537882355736501 L 4.566277112647371 1.5442503557365008 L 4.530457112647372 1.560170355736501 L 4.530457112647372 1.778672355736501 L 4.627171112647371 1.778672355736501 L 4.654235112647371 1.7122063557365008 L 4.6606031126473715 1.7122063557365008 L 4.6606031126473715 1.800562355736501 L 4.4627971126473716 1.800562355736501 M 4.895896351748934 1.804542355736501 Q 4.867240351748934 1.804542355736501 4.843161351748933 1.7943933557365008 Q 4.819082351748934 1.7842443557365009 4.801172351748933 1.766135355736501 Q 4.783262351748934 1.748026355736501 4.773312351748934 1.7233503557365009 Q 4.763362351748934 1.698674355736501 4.763362351748934 1.669222355736501 Q 4.763362351748934 1.6397703557365009 4.773312351748934 1.615094355736501 Q 4.783262351748934 1.5904183557365008 4.801172351748933 1.5723093557365009 Q 4.819082351748934 1.554200355736501 4.843161351748933 1.544051355736501 Q 4.867240351748934 1.533902355736501 4.895896351748934 1.533902355736501 Q 4.924552351748933 1.533902355736501 4.948830351748933 1.544051355736501 Q 4.973108351748934 1.554200355736501 4.9910183517489335 1.5723093557365009 Q 5.008928351748933 1.5904183557365008 5.018878351748933 1.615094355736501 Q 5.028828351748934 1.6397703557365009 5.028828351748934 1.669222355736501 Q 5.028828351748934 1.698674355736501 5.018878351748933 1.7233503557365009 Q 5.008928351748933 1.748026355736501 4.9910183517489335 1.766135355736501 Q 4.973108351748934 1.7842443557365009 4.948830351748933 1.7943933557365008 Q 4.924552351748933 1.804542355736501 4.895896351748934 1.804542355736501 M 4.904254351748934 1.784642355736501 Q 4.929726351748934 1.784642355736501 4.949029351748933 1.771906355736501 Q 4.968332351748933 1.7591703557365008 4.979277351748934 1.736086355736501 Q 4.990222351748933 1.7130023557365008 4.990222351748933 1.6815603557365009 Q 4.990222351748933 1.642954355736501 4.976690351748934 1.6140993557365009 Q 4.963158351748933 1.585244355736501 4.9402733517489335 1.5693243557365009 Q 4.917388351748934 1.553404355736501 4.889130351748934 1.553404355736501 Q 4.863658351748933 1.553404355736501 4.843957351748934 1.565941355736501 Q 4.824256351748933 1.578478355736501 4.813112351748933 1.6015623557365009 Q 4.8019683517489336 1.624646355736501 4.8019683517489336 1.656088355736501 Q 4.8019683517489336 1.6946943557365008 4.8156993517489335 1.723748355736501 Q 4.829430351748933 1.752802355736501 4.852514351748933 1.7687223557365008 Q 4.875598351748933 1.784642355736501 4.904254351748934 1.784642355736501 M 5.129592732452059 1.800562355736501 L 5.129592732452059 1.794194355736501 L 5.161432732452059 1.7782743557365008 L 5.161432732452059 1.560170355736501 L 5.129592732452059 1.5442503557365008 L 5.129592732452059 1.537882355736501 L 5.2302867324520586 1.537882355736501 Q 5.2565547324520585 1.537882355736501 5.277449732452059 1.5444493557365009 Q 5.298344732452058 1.5510163557365009 5.310284732452058 1.563951355736501 Q 5.322224732452058 1.576886355736501 5.322224732452058 1.596786355736501 Q 5.322224732452058 1.617084355736501 5.308692732452059 1.633999355736501 Q 5.295160732452058 1.650914355736501 5.2696887324520585 1.6580783557365009 Q 5.305110732452058 1.662854355736501 5.325010732452059 1.680167355736501 Q 5.344910732452059 1.6974803557365008 5.344910732452059 1.7241463557365009 Q 5.344910732452059 1.7460363557365008 5.331179732452059 1.763349355736501 Q 5.317448732452059 1.780662355736501 5.293568732452059 1.790612355736501 Q 5.2696887324520585 1.800562355736501 5.239440732452058 1.800562355736501 L 5.129592732452059 1.800562355736501 M 5.221132732452058 1.5597723557365009 L 5.197252732452059 1.5597723557365009 L 5.197252732452059 1.654098355736501 L 5.223520732452059 1.654098355736501 Q 5.251778732452059 1.654098355736501 5.267698732452058 1.6419593557365009 Q 5.283618732452059 1.629820355736501 5.283618732452059 1.6079303557365008 Q 5.283618732452059 1.5597723557365009 5.221132732452058 1.5597723557365009 M 5.236256732452058 1.675988355736501 L 5.197252732452059 1.675988355736501 L 5.197252732452059 1.778672355736501 L 5.2390427324520585 1.778672355736501 Q 5.270484732452059 1.778672355736501 5.288394732452058 1.7643443557365008 Q 5.306304732452058 1.750016355736501 5.306304732452058 1.727330355736501 Q 5.306304732452058 1.700266355736501 5.288195732452058 1.6881273557365009 Q 5.270086732452058 1.675988355736501 5.236256732452058 1.675988355736501 M 5.417812586787996 1.800562355736501 L 5.417812586787996 1.794194355736501 L 5.443284586787995 1.781060355736501 L 5.545172586787996 1.535892355736501 L 5.563082586787996 1.535892355736501 L 5.663378586787996 1.7798663557365009 L 5.690044586787995 1.794194355736501 L 5.690044586787995 1.800562355736501 L 5.591340586787996 1.800562355736501 L 5.591340586787996 1.794194355736501 L 5.626364586787996 1.780662355736501 L 5.596514586787996 1.707032355736501 L 5.4998005867879955 1.707032355736501 L 5.4703485867879955 1.780662355736501 L 5.503780586787996 1.794194355736501 L 5.503780586787996 1.800562355736501 L 5.417812586787996 1.800562355736501 M 5.508954586787995 1.6851423557365008 L 5.587758586787996 1.6851423557365008 L 5.548356586787996 1.587234355736501 L 5.508954586787995 1.6851423557365008 M 5.776080246787996 1.800562355736501 L 5.776080246787996 1.794194355736501 L 5.807920246787996 1.7782743557365008 L 5.807920246787996 1.560170355736501 L 5.776080246787996 1.5442503557365008 L 5.776080246787996 1.537882355736501 L 5.879560246787995 1.537882355736501 L 5.879560246787995 1.5442503557365008 L 5.843740246787996 1.560170355736501 L 5.843740246787996 1.778672355736501 L 5.940454246787995 1.778672355736501 L 5.9675182467879955 1.7122063557365008 L 5.973886246787996 1.7122063557365008 L 5.973886246787996 1.800562355736501 L 5.776080246787996 1.800562355736501" fill="#322725" fill-rule="nonzero"></path></g><g clip-path="url(#SvgjsClipPath1105)"><g clip-path="url(#SvgjsClipPath1104396100d6-daf0-4e89-9778-e9f587dfcf58)"><path d=" M 5.69155374728693 1.0339023557365008 L 5.625623149229904 0.9198075045817404 L 4.710399644737353 0.9198075045817404 L 4.77633024279438 0.8056099577913771 L 5.028961506377377 0.8056099577913771 L 4.963030908320351 0.6915151066366169 L 4.710399644737353 0.6915151066366169 L 4.512710546201878 1.0339023557365008 L 5.69155374728693 1.0339023557365008 Z" fill="#f5c271" transform="matrix(1,0,0,1,0,0)" fill-rule="evenodd"></path></g><g clip-path="url(#SvgjsClipPath1104396100d6-daf0-4e89-9778-e9f587dfcf58)"><path d=" M 4.2490908496093756 1.0339023557365008 L 4.380849350087825 1.0339023557365008 L 4.838461102334101 0.24129744015374627 L 4.904391700391127 0.3554949869441094 L 4.778076068599628 0.5742366907781683 L 4.9099372647136805 0.5742366907781683 L 5.036252896505179 0.3554949869441094 L 4.838563797969703 0.013005042208622863 L 4.2490908496093756 1.0339023557365008 Z" fill="#f05d65" transform="matrix(1,0,0,1,0,0)" fill-rule="evenodd"></path></g><g clip-path="url(#SvgjsClipPath1104396100d6-daf0-4e89-9778-e9f587dfcf58)"><path d=" M 4.970322298448153 -0.21528735573650057 L 4.904391700391127 -0.10108980894613742 L 5.362003452637402 0.6915151066366169 L 5.2302449521589525 0.6915151066366169 L 5.103929320367453 0.472773402802558 L 5.0379987223104274 0.5868682539573182 L 5.1643143541019265 0.8056099577913771 L 5.559692551172878 0.8056099577913771 L 4.970322298448153 -0.21528735573650057 Z" fill="#17b9a2" transform="matrix(1,0,0,1,0,0)" fill-rule="evenodd"></path></g></g></g><defs><clipPath id="SvgjsClipPath1105"><path d=" M 4.2490908496093756 -0.2152873557365007 h 1.4424628976775546 v 1.2491897114730015 h -1.4424628976775546 Z"></path></clipPath><clipPath id="SvgjsClipPath1104396100d6-daf0-4e89-9778-e9f587dfcf58"><path d=" M 4.2490908496093756 -0.21528735573650057 L 5.69155374728693 -0.21528735573650057 L 5.69155374728693 1.0339023557365008 L 4.2490908496093756 1.0339023557365008 Z"></path></clipPath></defs></svg>