<svg xmlns="http://www.w3.org/2000/svg" version="1.1" xmlns:xlink="http://www.w3.org/1999/xlink" xmlns:svgjs="http://svgjs.dev/svgjs" viewBox="0 0 18.32754262310055 3.8475691371893213"><g transform="matrix(1,0,0,1,5.491704692969134,0.6566485197310241)"><g><path d=" M 1.06361775 0.90526275 Q 1.1278395 0.988839 1.1278395 1.0961685 Q 1.1278395 1.2545235 1.0187505 1.344258 Q 0.9096615 1.4339925 0.7125975 1.4339925 L 0.098532 1.4339925 L 0.098532 0.19354500000000008 L 0.693243 0.19354500000000008 Q 0.883269 0.19354500000000008 0.99147825 0.27800099999999994 Q 1.0996875 0.36245700000000003 1.0996875 0.5155335 Q 1.0996875 0.6246225 1.04250375 0.69764175 Q 0.98532 0.770661 0.890307 0.7970535 Q 0.999396 0.8216865 1.06361775 0.90526275 M 0.443394 0.686205 L 0.6175845 0.686205 Q 0.7477875 0.686205 0.7477875 0.5788755 Q 0.7477875 0.46802699999999997 0.6175845 0.46802699999999997 L 0.443394 0.46802699999999997 L 0.443394 0.686205 M 0.77418 1.0469025 Q 0.77418 0.9905984999999999 0.73986975 0.9606870000000001 Q 0.7055595 0.9307755 0.6422175 0.9307755 L 0.443394 0.9307755 L 0.443394 1.1559915 L 0.643977 1.1559915 Q 0.77418 1.1559915 0.77418 1.0469025 M 2.2143668334960935 0.55160325 Q 2.3137785834960938 0.665091 2.3137785834960938 0.858636 L 2.3137785834960938 1.4339925 L 1.9689165834960938 1.4339925 L 1.9689165834960938 0.904383 Q 1.9689165834960938 0.819927 1.9249290834960937 0.77154075 Q 1.8809415834960936 0.7231545 1.8070425834960937 0.7231545 Q 1.7296245834960937 0.7231545 1.6856370834960939 0.77154075 Q 1.6416495834960938 0.819927 1.6416495834960938 0.904383 L 1.6416495834960938 1.4339925 L 1.2967875834960938 1.4339925 L 1.2967875834960938 0.13196249999999998 L 1.6416495834960938 0.13196249999999998 L 1.6416495834960938 0.587673 Q 1.6873965834960938 0.520812 1.7656943334960937 0.47946374999999997 Q 1.8439920834960937 0.4381155 1.9460430834960938 0.4381155 Q 2.1149550834960937 0.4381155 2.2143668334960935 0.55160325 M 2.5204742995605467 0.672129 Q 2.575898549560547 0.5577615 2.671791299560547 0.49617900000000004 Q 2.767684049560547 0.43459650000000005 2.885570549560547 0.43459650000000005 Q 2.9876215495605467 0.43459650000000005 3.0615205495605466 0.47506499999999996 Q 3.135419549560547 0.5155335 3.175888049560547 0.584154 L 3.175888049560547 0.446913 L 3.520750049560547 0.446913 L 3.520750049560547 1.4339925 L 3.175888049560547 1.4339925 L 3.175888049560547 1.2967515 Q 3.135419549560547 1.365372 3.060640799560547 1.4058405 Q 2.985862049560547 1.446309 2.885570549560547 1.446309 Q 2.767684049560547 1.446309 2.671791299560547 1.3847265 Q 2.575898549560547 1.323144 2.5204742995605467 1.20789675 Q 2.465050049560547 1.0926495 2.465050049560547 0.939573 Q 2.465050049560547 0.7864965 2.5204742995605467 0.672129 M 3.123982799560547 0.7900155 Q 3.0720775495605466 0.735471 2.9964190495605467 0.735471 Q 2.919001049560547 0.735471 2.867975549560547 0.78913575 Q 2.8169500495605466 0.8428005 2.8169500495605466 0.939573 Q 2.8169500495605466 1.034586 2.867975549560547 1.09001025 Q 2.919001049560547 1.1454345 2.9964190495605467 1.1454345 Q 3.0720775495605466 1.1454345 3.123982799560547 1.09089 Q 3.175888049560547 1.0363455 3.175888049560547 0.939573 Q 3.175888049560547 0.84456 3.123982799560547 0.7900155 M 4.221018162597656 0.4873815 Q 4.303714662597656 0.4381155 4.398727662597656 0.4381155 L 4.398727662597656 0.805851 L 4.301955162597657 0.805851 Q 4.189347162597656 0.805851 4.134802662597656 0.8498385 Q 4.080258162597656 0.893826 4.080258162597656 1.002915 L 4.080258162597656 1.4339925 L 3.7353961625976564 1.4339925 L 3.7353961625976564 0.446913 L 4.080258162597656 0.446913 L 4.080258162597656 0.6211035 Q 4.138321662597656 0.5366475 4.221018162597656 0.4873815 M 4.538645714355469 0.672129 Q 4.5940699643554685 0.5577615 4.6899627143554685 0.49617900000000004 Q 4.7858554643554685 0.43459650000000005 4.9037419643554685 0.43459650000000005 Q 5.005792964355469 0.43459650000000005 5.079691964355469 0.47506499999999996 Q 5.153590964355469 0.5155335 5.194059464355469 0.584154 L 5.194059464355469 0.446913 L 5.538921464355468 0.446913 L 5.538921464355468 1.4339925 L 5.194059464355469 1.4339925 L 5.194059464355469 1.2967515 Q 5.153590964355469 1.365372 5.078812214355469 1.4058405 Q 5.0040334643554685 1.446309 4.9037419643554685 1.446309 Q 4.7858554643554685 1.446309 4.6899627143554685 1.3847265 Q 4.5940699643554685 1.323144 4.538645714355469 1.20789675 Q 4.483221464355468 1.0926495 4.483221464355468 0.939573 Q 4.483221464355468 0.7864965 4.538645714355469 0.672129 M 5.142154214355468 0.7900155 Q 5.090248964355468 0.735471 5.014590464355469 0.735471 Q 4.937172464355468 0.735471 4.8861469643554685 0.78913575 Q 4.835121464355469 0.8428005 4.835121464355469 0.939573 Q 4.835121464355469 1.034586 4.8861469643554685 1.09001025 Q 4.937172464355468 1.1454345 5.014590464355469 1.1454345 Q 5.090248964355468 1.1454345 5.142154214355468 1.09089 Q 5.194059464355469 1.0363455 5.194059464355469 0.939573 Q 5.194059464355469 0.84456 5.142154214355468 0.7900155 M 6.335962077392578 1.140156 L 6.335962077392578 1.4339925 L 6.186404577392578 1.4339925 Q 5.808112077392578 1.4339925 5.808112077392578 1.0592190000000001 L 5.808112077392578 0.7337115 L 5.686706577392578 0.7337115 L 5.686706577392578 0.446913 L 5.808112077392578 0.446913 L 5.808112077392578 0.20762100000000006 L 6.154733577392578 0.20762100000000006 L 6.154733577392578 0.446913 L 6.334202577392578 0.446913 L 6.334202577392578 0.7337115 L 6.154733577392578 0.7337115 L 6.154733577392578 1.0644974999999999 Q 6.154733577392578 1.1049660000000001 6.173208327392578 1.1225610000000001 Q 6.191683077392578 1.140156 6.235670577392578 1.140156 L 6.335962077392578 1.140156 M 7.429527410888672 0.55160325 Q 7.528939160888672 0.665091 7.528939160888672 0.858636 L 7.528939160888672 1.4339925 L 7.1840771608886715 1.4339925 L 7.1840771608886715 0.904383 Q 7.1840771608886715 0.819927 7.1400896608886715 0.77154075 Q 7.096102160888672 0.7231545 7.022203160888672 0.7231545 Q 6.944785160888672 0.7231545 6.900797660888672 0.77154075 Q 6.856810160888672 0.819927 6.856810160888672 0.904383 L 6.856810160888672 1.4339925 L 6.511948160888672 1.4339925 L 6.511948160888672 0.13196249999999998 L 6.856810160888672 0.13196249999999998 L 6.856810160888672 0.587673 Q 6.902557160888672 0.520812 6.980854910888672 0.47946374999999997 Q 7.059152660888672 0.4381155 7.161203660888672 0.4381155 Q 7.330115660888672 0.4381155 7.429527410888672 0.55160325 M 8.081376626953125 0.4697865 L 8.081376626953125 0.672129 L 8.477264126953125 0.672129 L 8.477264126953125 0.9342945 L 8.081376626953125 0.9342945 L 8.081376626953125 1.157751 L 8.530049126953125 1.157751 L 8.530049126953125 1.4339925 L 7.736514626953125 1.4339925 L 7.736514626953125 0.19354500000000008 L 8.530049126953125 0.19354500000000008 L 8.530049126953125 0.4697865 L 8.081376626953125 0.4697865 M 9.334094233886718 1.4339925 L 9.156384733886718 1.185903 L 9.01562473388672 1.4339925 L 8.637332233886719 1.4339925 L 8.966358733886718 0.921978 L 8.62325623388672 0.446913 L 9.010346233886718 0.446913 L 9.188055733886719 0.6950025 L 9.33057523388672 0.446913 L 9.708867733886718 0.446913 L 9.372803233886719 0.95013 L 9.721184233886719 1.4339925 L 9.334094233886718 1.4339925 M 9.86808616040039 0.30527324999999994 Q 9.81266191040039 0.25512749999999995 9.81266191040039 0.1794690000000001 Q 9.81266191040039 0.10205100000000011 9.86808616040039 0.051025499999999946 Q 9.92351041040039 0 10.01500441040039 0 Q 10.104738910400389 0 10.16016316040039 0.051025499999999946 Q 10.21558741040039 0.10205100000000011 10.21558741040039 0.1794690000000001 Q 10.21558741040039 0.25512749999999995 10.16016316040039 0.30527324999999994 Q 10.104738910400389 0.35541899999999993 10.01500441040039 0.35541899999999993 Q 9.92351041040039 0.35541899999999993 9.86808616040039 0.30527324999999994 M 10.18567591040039 0.446913 L 10.18567591040039 1.4339925 L 9.84081391040039 1.4339925 L 9.84081391040039 0.446913 L 10.18567591040039 0.446913 M 11.982975949951172 0.5507235 Q 12.089425699951171 0.6633315 12.089425699951171 0.858636 L 12.089425699951171 1.4339925 L 11.744563699951172 1.4339925 L 11.744563699951172 0.904383 Q 11.744563699951172 0.8252055 11.700576199951172 0.781218 Q 11.656588699951172 0.7372305 11.580930199951172 0.7372305 Q 11.505271699951171 0.7372305 11.461284199951171 0.781218 Q 11.417296699951171 0.8252055 11.417296699951171 0.904383 L 11.417296699951171 1.4339925 L 11.072434699951172 1.4339925 L 11.072434699951172 0.904383 Q 11.072434699951172 0.8252055 11.029326949951171 0.781218 Q 10.986219199951172 0.7372305 10.910560699951171 0.7372305 Q 10.833142699951171 0.7372305 10.789155199951171 0.781218 Q 10.745167699951171 0.8252055 10.745167699951171 0.904383 L 10.745167699951171 1.4339925 L 10.400305699951172 1.4339925 L 10.400305699951172 0.446913 L 10.745167699951171 0.446913 L 10.745167699951171 0.577116 Q 10.790914699951172 0.513774 10.863933949951171 0.47594475 Q 10.936953199951171 0.4381155 11.031966199951171 0.4381155 Q 11.141055199951172 0.4381155 11.226390949951172 0.485622 Q 11.311726699951171 0.5331285 11.360992699951172 0.619344 Q 11.413777699951172 0.538407 11.499993199951172 0.48826125 Q 11.586208699951172 0.4381155 11.690019199951172 0.4381155 Q 11.876526199951172 0.4381155 11.982975949951172 0.5507235" fill="white" fill-rule="nonzero"></path></g><g><path d=" M 0.11624999999999999 2.346772097727273 Q 0.08045454545454545 2.330408461363637 0.06 2.301090279545455 Q 0.03954545454545454 2.2717720977272733 0.03818181818181818 2.2356357340909097 L 0.08863636363636362 2.2356357340909097 Q 0.09204545454545454 2.270408461363637 0.11931818181818181 2.296658461363637 Q 0.14659090909090908 2.3229084613636366 0.19909090909090907 2.3229084613636366 Q 0.24749999999999997 2.3229084613636366 0.2757954545454545 2.298022097727273 Q 0.3040909090909091 2.2731357340909093 0.3040909090909091 2.234953915909091 Q 0.3040909090909091 2.204272097727273 0.2884090909090909 2.185522097727273 Q 0.2727272727272727 2.1667720977272733 0.24954545454545451 2.157567552272728 Q 0.22636363636363635 2.1483630068181823 0.18545454545454543 2.1374539159090915 Q 0.13772727272727273 2.124499370454546 0.10977272727272726 2.1122266431818186 Q 0.08181818181818182 2.0999539159090914 0.06204545454545454 2.0740448250000005 Q 0.04227272727272727 2.0481357340909097 0.04227272727272727 2.0038175522727277 Q 0.04227272727272727 1.9669993704545459 0.061363636363636356 1.938022097727273 Q 0.08045454545454545 1.9090448250000005 0.11522727272727272 1.8926811886363641 Q 0.15 1.8763175522727278 0.19499999999999998 1.8763175522727278 Q 0.2611363636363636 1.8763175522727278 0.30170454545454545 1.9087039159090913 Q 0.34227272727272723 1.941090279545455 0.3484090909090909 1.9922266431818185 L 0.29659090909090907 1.9922266431818185 Q 0.2918181818181818 1.9629084613636367 0.26454545454545453 1.9400675522727278 Q 0.23727272727272725 1.9172266431818186 0.1909090909090909 1.9172266431818186 Q 0.14795454545454545 1.9172266431818186 0.11931818181818181 1.9400675522727278 Q 0.09068181818181817 1.9629084613636367 0.09068181818181817 2.0024539159090913 Q 0.09068181818181817 2.0324539159090915 0.10636363636363635 2.050863006818182 Q 0.12204545454545454 2.069272097727273 0.14556818181818182 2.078817552272728 Q 0.16909090909090907 2.088363006818182 0.2093181818181818 2.099272097727273 Q 0.2556818181818182 2.1122266431818186 0.2843181818181818 2.124840279545455 Q 0.31295454545454543 2.1374539159090915 0.3327272727272727 2.1633630068181824 Q 0.3525 2.1892720977272733 0.3525 2.2329084613636367 Q 0.3525 2.266317552272728 0.3347727272727272 2.2963175522727277 Q 0.3170454545454545 2.3263175522727275 0.28227272727272723 2.3447266431818186 Q 0.24749999999999997 2.3631357340909096 0.19909090909090907 2.3631357340909096 Q 0.15204545454545454 2.3631357340909096 0.11624999999999999 2.346772097727273 M 0.4506964666193181 1.9056357340909096 Q 0.4404691938920454 1.8954084613636368 0.4404691938920454 1.8804084613636367 Q 0.4404691938920454 1.8654084613636368 0.4506964666193181 1.855522097727273 Q 0.46092373934659087 1.8456357340909095 0.4752419211647727 1.8456357340909095 Q 0.4895601029829545 1.8456357340909095 0.49978737571022724 1.855522097727273 Q 0.5100146484375 1.8654084613636368 0.5100146484375 1.8804084613636367 Q 0.5100146484375 1.8954084613636368 0.49978737571022724 1.9056357340909096 Q 0.4895601029829545 1.9158630068181823 0.4752419211647727 1.9158630068181823 Q 0.46092373934659087 1.9158630068181823 0.4506964666193181 1.9056357340909096 M 0.499105557528409 1.986090279545455 L 0.499105557528409 2.3583630068181822 L 0.45137828480113634 2.3583630068181822 L 0.45137828480113634 1.986090279545455 L 0.499105557528409 1.986090279545455 M 1.1642218572443181 2.020522097727273 Q 1.205471857244318 2.0617720977272733 1.205471857244318 2.140181188636364 L 1.205471857244318 2.3583630068181822 L 1.1584264026988635 2.3583630068181822 L 1.1584264026988635 2.1456357340909094 Q 1.1584264026988635 2.0849539159090913 1.1291082208806817 2.0529084613636366 Q 1.0997900390625 2.0208630068181823 1.0493354936079544 2.0208630068181823 Q 0.9968354936079544 2.0208630068181823 0.965471857244318 2.0556357340909095 Q 0.9341082208806817 2.0904084613636367 0.9341082208806817 2.1565448250000006 L 0.9341082208806817 2.3583630068181822 L 0.8870627663352272 2.3583630068181822 L 0.8870627663352272 2.1456357340909094 Q 0.8870627663352272 2.0849539159090913 0.8577445845170453 2.0529084613636366 Q 0.8284264026988635 2.0208630068181823 0.7772900390624999 2.0208630068181823 Q 0.7247900390625 2.0208630068181823 0.6934264026988636 2.0556357340909095 Q 0.6620627663352272 2.0904084613636367 0.6620627663352272 2.1565448250000006 L 0.6620627663352272 2.3583630068181822 L 0.6143354936079545 2.3583630068181822 L 0.6143354936079545 1.986090279545455 L 0.6620627663352272 1.986090279545455 L 0.6620627663352272 2.050181188636364 Q 0.6797900390624999 2.015408461363637 0.7125173117897726 1.9973402795454551 Q 0.7452445845170453 1.9792720977272733 0.785471857244318 1.9792720977272733 Q 0.833880948153409 1.9792720977272733 0.8703582208806817 2.0024539159090913 Q 0.9068354936079543 2.0256357340909097 0.9231991299715908 2.0706357340909096 Q 0.9381991299715908 2.0263175522727277 0.9746764026988635 2.0027948250000005 Q 1.011153675426136 1.9792720977272733 1.0575173117897725 1.9792720977272733 Q 1.122971857244318 1.9792720977272733 1.1642218572443181 2.020522097727273 M 1.4212486683238637 2.0055220977272734 Q 1.4597713955965907 1.9806357340909095 1.512953213778409 1.9806357340909095 Q 1.5634077592329545 1.9806357340909095 1.6039759410511363 2.004158461363637 Q 1.644544122869318 2.027681188636364 1.6673850319602272 2.070976643181819 Q 1.6902259410511362 2.114272097727273 1.6902259410511362 2.1715448250000002 Q 1.6902259410511362 2.228817552272728 1.6673850319602272 2.2724539159090913 Q 1.644544122869318 2.3160902795454548 1.6039759410511363 2.339953915909091 Q 1.5634077592329545 2.3638175522727276 1.512953213778409 2.3638175522727276 Q 1.460453213778409 2.3638175522727276 1.4215895774147727 2.338931188636364 Q 1.3827259410511363 2.3140448250000003 1.3649986683238635 2.276544825 L 1.3649986683238635 2.534272097727273 L 1.317953213778409 2.534272097727273 L 1.317953213778409 1.986090279545455 L 1.3649986683238635 1.986090279545455 L 1.3649986683238635 2.0679084613636367 Q 1.3827259410511363 2.0304084613636366 1.4212486683238637 2.0055220977272734 M 1.6237486683238636 2.091431188636364 Q 1.6056804865056817 2.057681188636364 1.5743168501420453 2.0399539159090914 Q 1.542953213778409 2.0222266431818188 1.5034077592329544 2.0222266431818188 Q 1.4652259410511363 2.0222266431818188 1.4335213955965909 2.0406357340909094 Q 1.4018168501420454 2.0590448250000004 1.3834077592329543 2.0931357340909096 Q 1.3649986683238635 2.1272266431818188 1.3649986683238635 2.1722266431818187 Q 1.3649986683238635 2.2172266431818186 1.3834077592329543 2.251317552272728 Q 1.4018168501420454 2.285408461363637 1.4335213955965909 2.3038175522727276 Q 1.4652259410511363 2.3222266431818186 1.5034077592329544 2.3222266431818186 Q 1.542953213778409 2.3222266431818186 1.5743168501420453 2.304158461363637 Q 1.6056804865056817 2.286090279545455 1.6237486683238636 2.251658461363637 Q 1.6418168501420454 2.2172266431818186 1.6418168501420454 2.1715448250000002 Q 1.6418168501420454 2.125181188636364 1.6237486683238636 2.091431188636364 M 1.832717618075284 1.8538175522727278 L 1.832717618075284 2.3583630068181822 L 1.7849903453480112 2.3583630068181822 L 1.7849903453480112 1.8538175522727278 L 1.832717618075284 1.8538175522727278 M 1.9472657359730114 1.9056357340909096 Q 1.9370384632457387 1.8954084613636368 1.9370384632457387 1.8804084613636367 Q 1.9370384632457387 1.8654084613636368 1.9472657359730114 1.855522097727273 Q 1.957493008700284 1.8456357340909095 1.9718111905184659 1.8456357340909095 Q 1.9861293723366478 1.8456357340909095 1.9963566450639205 1.855522097727273 Q 2.0065839177911933 1.8654084613636368 2.0065839177911933 1.8804084613636367 Q 2.0065839177911933 1.8954084613636368 1.9963566450639205 1.9056357340909096 Q 1.9861293723366478 1.9158630068181823 1.9718111905184659 1.9158630068181823 Q 1.957493008700284 1.9158630068181823 1.9472657359730114 1.9056357340909096 M 1.9956748268821023 1.986090279545455 L 1.9956748268821023 2.3583630068181822 L 1.9479475541548295 2.3583630068181822 L 1.9479475541548295 1.986090279545455 L 1.9956748268821023 1.986090279545455 M 2.2574956720525567 2.0263175522727277 L 2.170904762961648 2.0263175522727277 L 2.170904762961648 2.3583630068181822 L 2.123177490234375 2.3583630068181822 L 2.123177490234375 2.0263175522727277 L 2.071359308416193 2.0263175522727277 L 2.071359308416193 1.986090279545455 L 2.123177490234375 1.986090279545455 L 2.123177490234375 1.960181188636364 Q 2.123177490234375 1.899499370454546 2.154200217507102 1.8708630068181824 Q 2.1852229447798295 1.8422266431818186 2.254768399325284 1.8422266431818186 L 2.254768399325284 1.8831357340909096 Q 2.2084047629616474 1.8831357340909096 2.1896547629616476 1.9008630068181822 Q 2.170904762961648 1.918590279545455 2.170904762961648 1.960181188636364 L 2.170904762961648 1.986090279545455 L 2.2574956720525567 1.986090279545455 L 2.2574956720525567 2.0263175522727277 M 2.3386403586647724 1.9056357340909096 Q 2.3284130859374996 1.8954084613636368 2.3284130859374996 1.8804084613636367 Q 2.3284130859374996 1.8654084613636368 2.3386403586647724 1.855522097727273 Q 2.348867631392045 1.8456357340909095 2.3631858132102272 1.8456357340909095 Q 2.377503995028409 1.8456357340909095 2.3877312677556817 1.855522097727273 Q 2.3979585404829544 1.8654084613636368 2.3979585404829544 1.8804084613636367 Q 2.3979585404829544 1.8954084613636368 2.3877312677556817 1.9056357340909096 Q 2.377503995028409 1.9158630068181823 2.3631858132102272 1.9158630068181823 Q 2.348867631392045 1.9158630068181823 2.3386403586647724 1.9056357340909096 M 2.3870494495738632 1.986090279545455 L 2.3870494495738632 2.3583630068181822 L 2.339322176846591 2.3583630068181822 L 2.339322176846591 1.986090279545455 L 2.3870494495738632 1.986090279545455 M 2.503643022017045 2.070976643181819 Q 2.5268248401988633 2.027681188636364 2.5677339311079543 2.004158461363637 Q 2.608643022017045 1.9806357340909095 2.661143022017045 1.9806357340909095 Q 2.7300066583806815 1.9806357340909095 2.774665749289772 2.0147266431818185 Q 2.8193248401988633 2.0488175522727277 2.8322793856534085 2.1074539159090913 L 2.781143022017045 2.1074539159090913 Q 2.7715975674715905 2.0672266431818187 2.739893022017045 2.0443857340909095 Q 2.7081884765624995 2.0215448250000003 2.661143022017045 2.0215448250000003 Q 2.623643022017045 2.0215448250000003 2.593643022017045 2.038590279545455 Q 2.563643022017045 2.0556357340909095 2.5462566583806816 2.0893857340909094 Q 2.528870294744318 2.1231357340909094 2.528870294744318 2.1722266431818187 Q 2.528870294744318 2.2213175522727275 2.5462566583806816 2.2554084613636367 Q 2.563643022017045 2.289499370454546 2.593643022017045 2.3065448250000005 Q 2.623643022017045 2.323590279545455 2.661143022017045 2.323590279545455 Q 2.7081884765624995 2.323590279545455 2.739893022017045 2.300749370454546 Q 2.7715975674715905 2.2779084613636367 2.781143022017045 2.2369993704545457 L 2.8322793856534085 2.2369993704545457 Q 2.8193248401988633 2.2942720977272733 2.7743248401988634 2.3290448250000004 Q 2.7293248401988635 2.3638175522727276 2.661143022017045 2.3638175522727276 Q 2.608643022017045 2.3638175522727276 2.5677339311079543 2.3402948250000004 Q 2.5268248401988633 2.316772097727273 2.503643022017045 2.2734766431818185 Q 2.480461203835227 2.2301811886363643 2.480461203835227 2.1722266431818187 Q 2.480461203835227 2.114272097727273 2.503643022017045 2.070976643181819 M 2.928058527166193 2.070976643181819 Q 2.950899436257102 2.027681188636364 2.991467618075284 2.004158461363637 Q 3.0320357998934657 1.9806357340909095 3.083172163529829 1.9806357340909095 Q 3.1363539817116473 1.9806357340909095 3.1748767089843746 2.005181188636364 Q 3.213399436257102 2.0297266431818186 3.2304448908025565 2.0679084613636367 L 3.2304448908025565 1.986090279545455 L 3.2781721635298293 1.986090279545455 L 3.2781721635298293 2.3583630068181822 L 3.2304448908025565 2.3583630068181822 L 3.2304448908025565 2.275863006818182 Q 3.212717618075284 2.3140448250000003 3.1741948908025566 2.338931188636364 Q 3.1356721635298292 2.3638175522727276 3.082490345348011 2.3638175522727276 Q 3.0320357998934657 2.3638175522727276 2.991467618075284 2.339953915909091 Q 2.950899436257102 2.3160902795454548 2.928058527166193 2.2724539159090913 Q 2.905217618075284 2.228817552272728 2.905217618075284 2.1715448250000002 Q 2.905217618075284 2.114272097727273 2.928058527166193 2.070976643181819 M 3.2120357998934654 2.0931357340909096 Q 3.193626708984375 2.0590448250000004 3.1619221635298294 2.0406357340909094 Q 3.130217618075284 2.0222266431818188 3.0920357998934658 2.0222266431818188 Q 3.0524903453480112 2.0222266431818188 3.0211267089843745 2.0399539159090914 Q 2.9897630726207383 2.057681188636364 2.9716948908025564 2.091431188636364 Q 2.9536267089843746 2.125181188636364 2.9536267089843746 2.1715448250000002 Q 2.9536267089843746 2.2172266431818186 2.9716948908025564 2.251658461363637 Q 2.9897630726207383 2.286090279545455 3.0211267089843745 2.304158461363637 Q 3.0524903453480112 2.3222266431818186 3.0920357998934658 2.3222266431818186 Q 3.130217618075284 2.3222266431818186 3.1619221635298294 2.3038175522727276 Q 3.193626708984375 2.285408461363637 3.2120357998934654 2.251317552272728 Q 3.2304448908025565 2.2172266431818186 3.2304448908025565 2.1722266431818187 Q 3.2304448908025565 2.1272266431818188 3.2120357998934654 2.0931357340909096 M 3.4561183860085225 2.0263175522727277 L 3.4561183860085225 2.257453915909091 Q 3.4561183860085225 2.2915448250000003 3.4690729314630677 2.304499370454546 Q 3.4820274769176134 2.3174539159090912 3.514754749644886 2.3174539159090912 L 3.5583911132812496 2.3174539159090912 L 3.5583911132812496 2.3583630068181822 L 3.5072547496448863 2.3583630068181822 Q 3.4568002041903405 2.3583630068181822 3.432254749644886 2.334840279545455 Q 3.4077092950994317 2.311317552272728 3.4077092950994317 2.257453915909091 L 3.4077092950994317 2.0263175522727277 L 3.35589111328125 2.0263175522727277 L 3.35589111328125 1.986090279545455 L 3.4077092950994317 1.986090279545455 L 3.4077092950994317 1.8926811886363641 L 3.4561183860085225 1.8926811886363641 L 3.4561183860085225 1.986090279545455 L 3.5583911132812496 1.986090279545455 L 3.5583911132812496 2.0263175522727277 L 3.4561183860085225 2.0263175522727277 M 3.6429488858309655 1.9056357340909096 Q 3.632721613103693 1.8954084613636368 3.632721613103693 1.8804084613636367 Q 3.632721613103693 1.8654084613636368 3.6429488858309655 1.855522097727273 Q 3.6531761585582383 1.8456357340909095 3.6674943403764204 1.8456357340909095 Q 3.681812522194602 1.8456357340909095 3.692039794921875 1.855522097727273 Q 3.7022670676491476 1.8654084613636368 3.7022670676491476 1.8804084613636367 Q 3.7022670676491476 1.8954084613636368 3.692039794921875 1.9056357340909096 Q 3.681812522194602 1.9158630068181823 3.6674943403764204 1.9158630068181823 Q 3.6531761585582383 1.9158630068181823 3.6429488858309655 1.9056357340909096 M 3.6913579767400564 1.986090279545455 L 3.6913579767400564 2.3583630068181822 L 3.643630704012784 2.3583630068181822 L 3.643630704012784 1.986090279545455 L 3.6913579767400564 1.986090279545455 M 3.875110640092329 2.3402948250000004 Q 3.833178821910511 2.316772097727273 3.8089742764559658 2.2734766431818185 Q 3.78476973100142 2.2301811886363643 3.78476973100142 2.1722266431818187 Q 3.78476973100142 2.114272097727273 3.8093151855468745 2.070976643181819 Q 3.8338606400923294 2.027681188636364 3.8761333673650564 2.004158461363637 Q 3.918406094637784 1.9806357340909095 3.9709060946377837 1.9806357340909095 Q 4.023406094637783 1.9806357340909095 4.06601973100142 2.004158461363637 Q 4.108633367365057 2.027681188636364 4.1328379128196016 2.070976643181819 Q 4.157042458274147 2.114272097727273 4.157042458274147 2.1722266431818187 Q 4.157042458274147 2.229499370454546 4.132497003728693 2.2731357340909093 Q 4.107951549183238 2.316772097727273 4.064997003728693 2.3402948250000004 Q 4.022042458274147 2.3638175522727276 3.969542458274147 2.3638175522727276 Q 3.9170424582741474 2.3638175522727276 3.875110640092329 2.3402948250000004 M 4.0377242764559655 2.3055220977272732 Q 4.069087912819602 2.288817552272728 4.08851973100142 2.2550675522727275 Q 4.107951549183238 2.2213175522727275 4.107951549183238 2.1722266431818187 Q 4.107951549183238 2.1231357340909094 4.088860640092329 2.0893857340909094 Q 4.06976973100142 2.0556357340909095 4.038406094637784 2.038931188636364 Q 4.007042458274148 2.0222266431818188 3.9702242764559657 2.0222266431818188 Q 3.9334060946377836 2.0222266431818188 3.9020424582741473 2.038931188636364 Q 3.870678821910511 2.0556357340909095 3.8519288219105112 2.0893857340909094 Q 3.833178821910511 2.1231357340909094 3.833178821910511 2.1722266431818187 Q 3.833178821910511 2.2213175522727275 3.8519288219105112 2.2550675522727275 Q 3.870678821910511 2.288817552272728 3.9017015491832385 2.3055220977272732 Q 3.9327242764559656 2.3222266431818186 3.969542458274147 2.3222266431818186 Q 4.006360640092329 2.3222266431818186 4.0377242764559655 2.3055220977272732 M 4.534789373224431 2.020522097727273 Q 4.577062100497159 2.0617720977272733 4.577062100497159 2.140181188636364 L 4.577062100497159 2.3583630068181822 L 4.5300166459517035 2.3583630068181822 L 4.5300166459517035 2.1456357340909094 Q 4.5300166459517035 2.0849539159090913 4.4996757368607945 2.0529084613636366 Q 4.469334827769885 2.0208630068181823 4.416834827769886 2.0208630068181823 Q 4.362971191406249 2.0208630068181823 4.330925736860795 2.0549539159090915 Q 4.2988802823153405 2.089044825 4.2988802823153405 2.155181188636364 L 4.2988802823153405 2.3583630068181822 L 4.251153009588068 2.3583630068181822 L 4.251153009588068 1.986090279545455 L 4.2988802823153405 1.986090279545455 L 4.2988802823153405 2.049499370454546 Q 4.316607555042613 2.015408461363637 4.350016645951704 1.9973402795454551 Q 4.3834257368607945 1.9792720977272733 4.425698464133522 1.9792720977272733 Q 4.492516645951704 1.9792720977272733 4.534789373224431 2.020522097727273 M 5.2581864790482955 2.0208630068181823 Q 5.23773193359375 1.9738175522727277 5.195800115411932 1.9468857340909096 Q 5.1538682972301135 1.9199539159090913 5.097277388139204 1.9199539159090913 Q 5.044095569957387 1.9199539159090913 5.001822842684659 1.944499370454546 Q 4.959550115411932 1.9690448250000006 4.935004660866477 2.0143857340909097 Q 4.910459206321023 2.0597266431818184 4.910459206321023 2.1197266431818185 Q 4.910459206321023 2.1797266431818185 4.935004660866477 2.225408461363637 Q 4.959550115411932 2.271090279545455 5.001822842684659 2.2956357340909097 Q 5.044095569957387 2.320181188636364 5.097277388139204 2.320181188636364 Q 5.147050115411932 2.320181188636364 5.1869364790482955 2.2987039159090914 Q 5.226822842684659 2.2772266431818187 5.251027388139205 2.237340279545455 Q 5.27523193359375 2.197453915909091 5.278641024502841 2.1442720977272733 L 5.078186479048295 2.1442720977272733 L 5.078186479048295 2.105408461363637 L 5.329095569957386 2.105408461363637 L 5.329095569957386 2.140181188636364 Q 5.325686479048295 2.202908461363637 5.295004660866477 2.2537039159090915 Q 5.264322842684659 2.304499370454546 5.212845569957386 2.333817552272728 Q 5.161368297230114 2.3631357340909096 5.097277388139204 2.3631357340909096 Q 5.0311410245028405 2.3631357340909096 4.977277388139204 2.332113006818182 Q 4.923413751775568 2.301090279545455 4.892391024502841 2.245522097727273 Q 4.861368297230114 2.1899539159090913 4.861368297230114 2.1197266431818185 Q 4.861368297230114 2.049499370454546 4.892391024502841 1.9939311886363642 Q 4.923413751775568 1.9383630068181823 4.977277388139204 1.907340279545455 Q 5.0311410245028405 1.8763175522727278 5.097277388139204 1.8763175522727278 Q 5.173641024502841 1.8763175522727278 5.230913751775568 1.9144993704545459 Q 5.288186479048296 1.952681188636364 5.314095569957386 2.0208630068181823 L 5.2581864790482955 2.0208630068181823 M 5.745674493963068 1.986090279545455 L 5.745674493963068 2.3583630068181822 L 5.697947221235795 2.3583630068181822 L 5.697947221235795 2.292908461363637 Q 5.6815835848721585 2.327681188636364 5.647492675781249 2.346090279545455 Q 5.613401766690341 2.364499370454546 5.571129039417613 2.364499370454546 Q 5.504310857599432 2.364499370454546 5.462038130326705 2.323249370454546 Q 5.419765403053977 2.281999370454546 5.419765403053977 2.203590279545455 L 5.419765403053977 1.986090279545455 L 5.466810857599432 1.986090279545455 L 5.466810857599432 2.1981357340909096 Q 5.466810857599432 2.2588175522727276 5.497151766690341 2.2908630068181823 Q 5.52749267578125 2.3229084613636366 5.5799926757812495 2.3229084613636366 Q 5.633856312144887 2.3229084613636366 5.66590176669034 2.288817552272728 Q 5.697947221235795 2.2547266431818187 5.697947221235795 2.188590279545455 L 5.697947221235795 1.986090279545455 L 5.745674493963068 1.986090279545455 M 5.86260331587358 2.070976643181819 Q 5.8854442249644885 2.027681188636364 5.926012406782671 2.004158461363637 Q 5.966580588600852 1.9806357340909095 6.017716952237216 1.9806357340909095 Q 6.070898770419034 1.9806357340909095 6.109421497691762 2.005181188636364 Q 6.147944224964489 2.0297266431818186 6.164989679509944 2.0679084613636367 L 6.164989679509944 1.986090279545455 L 6.212716952237216 1.986090279545455 L 6.212716952237216 2.3583630068181822 L 6.164989679509944 2.3583630068181822 L 6.164989679509944 2.275863006818182 Q 6.14726240678267 2.3140448250000003 6.108739679509943 2.338931188636364 Q 6.070216952237216 2.3638175522727276 6.017035134055398 2.3638175522727276 Q 5.966580588600852 2.3638175522727276 5.926012406782671 2.339953915909091 Q 5.8854442249644885 2.3160902795454548 5.86260331587358 2.2724539159090913 Q 5.839762406782671 2.228817552272728 5.839762406782671 2.1715448250000002 Q 5.839762406782671 2.114272097727273 5.86260331587358 2.070976643181819 M 6.146580588600853 2.0931357340909096 Q 6.128171497691762 2.0590448250000004 6.096466952237216 2.0406357340909094 Q 6.064762406782671 2.0222266431818188 6.0265805886008526 2.0222266431818188 Q 5.987035134055398 2.0222266431818188 5.955671497691761 2.0399539159090914 Q 5.924307861328125 2.057681188636364 5.906239679509944 2.091431188636364 Q 5.888171497691761 2.125181188636364 5.888171497691761 2.1715448250000002 Q 5.888171497691761 2.2172266431818186 5.906239679509944 2.251658461363637 Q 5.924307861328125 2.286090279545455 5.955671497691761 2.304158461363637 Q 5.987035134055398 2.3222266431818186 6.0265805886008526 2.3222266431818186 Q 6.064762406782671 2.3222266431818186 6.096466952237216 2.3038175522727276 Q 6.128171497691762 2.285408461363637 6.146580588600853 2.251317552272728 Q 6.164989679509944 2.2172266431818186 6.164989679509944 2.1722266431818187 Q 6.164989679509944 2.1272266431818188 6.146580588600853 2.0931357340909096 M 6.424413174715909 1.9983630068181824 Q 6.456799538352272 1.9792720977272733 6.503844992897727 1.9792720977272733 L 6.503844992897727 2.0290448250000006 L 6.490890447443181 2.0290448250000006 Q 6.439072265625 2.0290448250000006 6.407708629261363 2.056999370454546 Q 6.376344992897727 2.0849539159090913 6.376344992897727 2.1504084613636367 L 6.376344992897727 2.3583630068181822 L 6.328617720170454 2.3583630068181822 L 6.328617720170454 1.986090279545455 L 6.376344992897727 1.986090279545455 L 6.376344992897727 2.0522266431818186 Q 6.392026811079545 2.0174539159090914 6.424413174715909 1.9983630068181824 M 6.583276478160511 2.070976643181819 Q 6.60611738725142 2.027681188636364 6.646685569069602 2.004158461363637 Q 6.687253750887783 1.9806357340909095 6.738390114524147 1.9806357340909095 Q 6.791571932705965 1.9806357340909095 6.830094659978693 2.005181188636364 Q 6.86861738725142 2.0297266431818186 6.885662841796874 2.0679084613636367 L 6.885662841796874 1.986090279545455 L 6.933390114524147 1.986090279545455 L 6.933390114524147 2.3583630068181822 L 6.885662841796874 2.3583630068181822 L 6.885662841796874 2.275863006818182 Q 6.867935569069601 2.3140448250000003 6.8294128417968745 2.338931188636364 Q 6.790890114524148 2.3638175522727276 6.737708296342329 2.3638175522727276 Q 6.687253750887783 2.3638175522727276 6.646685569069602 2.339953915909091 Q 6.60611738725142 2.3160902795454548 6.583276478160511 2.2724539159090913 Q 6.560435569069602 2.228817552272728 6.560435569069602 2.1715448250000002 Q 6.560435569069602 2.114272097727273 6.583276478160511 2.070976643181819 M 6.867253750887784 2.0931357340909096 Q 6.848844659978693 2.0590448250000004 6.817140114524147 2.0406357340909094 Q 6.785435569069602 2.0222266431818188 6.747253750887784 2.0222266431818188 Q 6.707708296342329 2.0222266431818188 6.676344659978692 2.0399539159090914 Q 6.644981023615056 2.057681188636364 6.626912841796875 2.091431188636364 Q 6.6088446599786925 2.125181188636364 6.6088446599786925 2.1715448250000002 Q 6.6088446599786925 2.2172266431818186 6.626912841796875 2.251658461363637 Q 6.644981023615056 2.286090279545455 6.676344659978692 2.304158461363637 Q 6.707708296342329 2.3222266431818186 6.747253750887784 2.3222266431818186 Q 6.785435569069602 2.3222266431818186 6.817140114524147 2.3038175522727276 Q 6.848844659978693 2.285408461363637 6.867253750887784 2.251317552272728 Q 6.885662841796874 2.2172266431818186 6.885662841796874 2.1722266431818187 Q 6.885662841796874 2.1272266431818188 6.867253750887784 2.0931357340909096 M 7.33292724609375 2.020522097727273 Q 7.3751999733664775 2.0617720977272733 7.3751999733664775 2.140181188636364 L 7.3751999733664775 2.3583630068181822 L 7.328154518821022 2.3583630068181822 L 7.328154518821022 2.1456357340909094 Q 7.328154518821022 2.0849539159090913 7.297813609730113 2.0529084613636366 Q 7.267472700639204 2.0208630068181823 7.214972700639205 2.0208630068181823 Q 7.161109064275568 2.0208630068181823 7.129063609730114 2.0549539159090915 Q 7.097018155184659 2.089044825 7.097018155184659 2.155181188636364 L 7.097018155184659 2.3583630068181822 L 7.049290882457386 2.3583630068181822 L 7.049290882457386 1.986090279545455 L 7.097018155184659 1.986090279545455 L 7.097018155184659 2.049499370454546 Q 7.114745427911932 2.015408461363637 7.1481545188210225 1.9973402795454551 Q 7.181563609730113 1.9792720977272733 7.223836337002841 1.9792720977272733 Q 7.290654518821023 1.9792720977272733 7.33292724609375 2.020522097727273 M 7.549742431640625 2.0263175522727277 L 7.549742431640625 2.257453915909091 Q 7.549742431640625 2.2915448250000003 7.562696977095171 2.304499370454546 Q 7.575651522549716 2.3174539159090912 7.608378795276988 2.3174539159090912 L 7.652015158913352 2.3174539159090912 L 7.652015158913352 2.3583630068181822 L 7.600878795276989 2.3583630068181822 Q 7.550424249822443 2.3583630068181822 7.525878795276989 2.334840279545455 Q 7.501333340731534 2.311317552272728 7.501333340731534 2.257453915909091 L 7.501333340731534 2.0263175522727277 L 7.449515158913353 2.0263175522727277 L 7.449515158913353 1.986090279545455 L 7.501333340731534 1.986090279545455 L 7.501333340731534 1.8926811886363641 L 7.549742431640625 1.8926811886363641 L 7.549742431640625 1.986090279545455 L 7.652015158913352 1.986090279545455 L 7.652015158913352 2.0263175522727277 L 7.549742431640625 2.0263175522727277 M 8.072709295099433 2.1906357340909093 L 7.763845658735796 2.1906357340909093 Q 7.76589111328125 2.2329084613636367 7.784300204190341 2.262908461363637 Q 7.802709295099432 2.292908461363637 7.832709295099432 2.3082493704545457 Q 7.862709295099432 2.323590279545455 7.898163840553978 2.323590279545455 Q 7.944527476917614 2.323590279545455 7.97623202237216 2.301090279545455 Q 8.007936567826704 2.278590279545455 8.018163840553978 2.2404084613636366 L 8.068618386008524 2.2404084613636366 Q 8.05498202237216 2.2949539159090913 8.010322931463069 2.3293857340909097 Q 7.965663840553978 2.3638175522727276 7.898163840553978 2.3638175522727276 Q 7.845663840553978 2.3638175522727276 7.804072931463068 2.3402948250000004 Q 7.76248202237216 2.316772097727273 7.738959295099432 2.2734766431818185 Q 7.715436567826705 2.2301811886363643 7.715436567826705 2.1722266431818187 Q 7.715436567826705 2.114272097727273 7.738618386008523 2.0706357340909096 Q 7.761800204190341 2.0269993704545457 7.803391113281251 2.0038175522727277 Q 7.844982022372159 1.9806357340909095 7.898163840553978 1.9806357340909095 Q 7.951345658735796 1.9806357340909095 7.991232022372159 2.0038175522727277 Q 8.031118386008522 2.0269993704545457 8.052595658735795 2.0662039159090915 Q 8.074072931463068 2.105408461363637 8.074072931463068 2.1531357340909096 Q 8.074072931463068 2.177681188636364 8.072709295099433 2.1906357340909093 M 8.008959295099432 2.0808630068181824 Q 7.991572931463068 2.0515448250000006 7.961572931463069 2.0365448250000004 Q 7.9315729314630685 2.0215448250000003 7.8961183860085224 2.0215448250000003 Q 7.842936567826705 2.0215448250000003 7.805436567826705 2.0556357340909095 Q 7.7679365678267045 2.0897266431818187 7.763845658735796 2.151772097727273 L 8.025663840553978 2.151772097727273 Q 8.026345658735796 2.110181188636364 8.008959295099432 2.0808630068181824 M 8.503624711470172 2.1906357340909093 L 8.194761075106536 2.1906357340909093 Q 8.19680652965199 2.2329084613636367 8.21521562056108 2.262908461363637 Q 8.23362471147017 2.292908461363637 8.263624711470172 2.3082493704545457 Q 8.293624711470171 2.323590279545455 8.329079256924716 2.323590279545455 Q 8.375442893288353 2.323590279545455 8.407147438742898 2.301090279545455 Q 8.438851984197445 2.278590279545455 8.449079256924717 2.2404084613636366 L 8.499533802379263 2.2404084613636366 Q 8.4858974387429 2.2949539159090913 8.441238347833808 2.3293857340909097 Q 8.396579256924717 2.3638175522727276 8.329079256924716 2.3638175522727276 Q 8.276579256924716 2.3638175522727276 8.234988347833808 2.3402948250000004 Q 8.193397438742899 2.316772097727273 8.169874711470172 2.2734766431818185 Q 8.146351984197445 2.2301811886363643 8.146351984197445 2.1722266431818187 Q 8.146351984197445 2.114272097727273 8.169533802379263 2.0706357340909096 Q 8.19271562056108 2.0269993704545457 8.23430652965199 2.0038175522727277 Q 8.275897438742899 1.9806357340909095 8.329079256924716 1.9806357340909095 Q 8.382261075106536 1.9806357340909095 8.422147438742899 2.0038175522727277 Q 8.462033802379262 2.0269993704545457 8.483511075106534 2.0662039159090915 Q 8.504988347833807 2.105408461363637 8.504988347833807 2.1531357340909096 Q 8.504988347833807 2.177681188636364 8.503624711470172 2.1906357340909093 M 8.439874711470171 2.0808630068181824 Q 8.422488347833808 2.0515448250000006 8.392488347833808 2.0365448250000004 Q 8.362488347833807 2.0215448250000003 8.327033802379262 2.0215448250000003 Q 8.273851984197444 2.0215448250000003 8.236351984197444 2.0556357340909095 Q 8.198851984197445 2.0897266431818187 8.194761075106536 2.151772097727273 L 8.456579256924718 2.151772097727273 Q 8.457261075106535 2.110181188636364 8.439874711470171 2.0808630068181824 M 8.600449218750002 2.070976643181819 Q 8.623631036931819 2.027681188636364 8.664199218750001 2.004158461363637 Q 8.704767400568183 1.9806357340909095 8.755903764204547 1.9806357340909095 Q 8.804994673295456 1.9806357340909095 8.844540127840911 2.0044993704545457 Q 8.884085582386366 2.028363006818182 8.902494673295456 2.0665448250000003 L 8.902494673295456 1.8538175522727278 L 8.95022194602273 1.8538175522727278 L 8.95022194602273 2.3583630068181822 L 8.902494673295456 2.3583630068181822 L 8.902494673295456 2.275181188636364 Q 8.885449218750002 2.3140448250000003 8.846585582386366 2.338931188636364 Q 8.80772194602273 2.3638175522727276 8.75522194602273 2.3638175522727276 Q 8.704085582386366 2.3638175522727276 8.663517400568184 2.339953915909091 Q 8.622949218750001 2.3160902795454548 8.600108309659092 2.2724539159090913 Q 8.577267400568184 2.228817552272728 8.577267400568184 2.1715448250000002 Q 8.577267400568184 2.114272097727273 8.600449218750002 2.070976643181819 M 8.884085582386366 2.0931357340909096 Q 8.865676491477274 2.0590448250000004 8.833971946022729 2.0406357340909094 Q 8.802267400568184 2.0222266431818188 8.764085582386365 2.0222266431818188 Q 8.72454012784091 2.0222266431818188 8.693176491477274 2.0399539159090914 Q 8.661812855113638 2.057681188636364 8.643744673295457 2.091431188636364 Q 8.625676491477275 2.125181188636364 8.625676491477275 2.1715448250000002 Q 8.625676491477275 2.2172266431818186 8.643744673295457 2.251658461363637 Q 8.661812855113638 2.286090279545455 8.693176491477274 2.304158461363637 Q 8.72454012784091 2.3222266431818186 8.764085582386365 2.3222266431818186 Q 8.802267400568184 2.3222266431818186 8.833971946022729 2.3038175522727276 Q 8.865676491477274 2.285408461363637 8.884085582386366 2.251317552272728 Q 8.902494673295456 2.2172266431818186 8.902494673295456 2.1722266431818187 Q 8.902494673295456 2.1272266431818188 8.884085582386366 2.0931357340909096" fill="#337551" fill-rule="nonzero"></path></g><g clip-path="url(#SvgjsClipPath1001)"><g clip-path="url(#SvgjsClipPath1000418cadee-c7b1-4076-b8a2-f8d86f0c3cc0)"><path d=" M -1.1733513705829415 0.09118368666071497 C -1.5147699145016684 0.09117487759323548 -1.8385210429555783 0.2429527922451432 -2.0568977175952217 0.505399453840434 L -2.6161074826885655 1.1774837084677725 C -2.3094302780844203 1.163115974406557 -2.09736760517602 1.284132949883607 -2.061575315902938 1.5032755431935585 C -2.1982145546286103 1.503273919512743 -2.3278231314196014 1.5638504159790365 -2.4154673893513516 1.6686777292793444 L -2.6752069161220557 1.979362653915036 L -2.9837667096747333 1.6193839278538789 L -2.994888998984185 1.6327468445008484 C -3.204641746802356 1.8848405192228996 -3.0253800101751946 2.267213969033823 -2.6974283954900495 2.267213969033823 L -2.2105077360953977 2.267213969033823 L -0.39994225187274246 0.09126453403887366 Z" fill="#1a702d" transform="matrix(1,0,0,1,0,0)" fill-rule="nonzero"></path></g><g clip-path="url(#SvgjsClipPath1000418cadee-c7b1-4076-b8a2-f8d86f0c3cc0)"><path d=" M -2.32693951026835 1.3159521680015018 C -2.32693951026835 1.343431532566301 -2.349215932147066 1.365707954445017 -2.376695296711865 1.365707954445017 C -2.404174661276665 1.365707954445017 -2.42645108315538 1.343431532566301 -2.42645108315538 1.3159521680015018 C -2.42645108315538 1.2884728034367026 -2.404174661276665 1.2661963815579866 -2.376695296711865 1.2661963815579866 C -2.349215932147066 1.2661963815579866 -2.32693951026835 1.2884728034367026 -2.32693951026835 1.3159521680015018 Z" fill="#ff6b00" transform="matrix(1,0,0,1,0,0)" fill-rule="nonzero"></path></g><g clip-path="url(#SvgjsClipPath1000418cadee-c7b1-4076-b8a2-f8d86f0c3cc0)"><path d=" M -2.227173845621392 2.2671793201574673 L -3.07557468238585 2.2671793201574673 C -3.36942738244523 2.267184461844569 -3.648022641732939 2.1363427746788286 -3.835667082950881 1.910203496713604 L -4.835079272489011 0.7057739057922775 L -4.0101357250158225 0.7057739057922775 C -3.7014455648478624 0.7057728946517072 -3.408784414742493 0.8432221219895044 -3.2116639190766465 1.0807786945653732 Z" fill="#ff6b00" transform="matrix(1,0,0,1,0,0)" fill-rule="nonzero"></path></g></g></g><defs><clipPath id="SvgjsClipPath1001"><path d=" M -4.835056173238111 0.09118368666071497 h 4.43505617323811 v 2.1759956334967523 h -4.43505617323811 Z"></path></clipPath><clipPath id="SvgjsClipPath1000418cadee-c7b1-4076-b8a2-f8d86f0c3cc0"><path d=" M -4.835056173238111 0.09118368666071497 L -0.40000000000000036 0.09118368666071497 L -0.40000000000000036 2.2671793201574673 L -4.835056173238111 2.2671793201574673 Z"></path></clipPath></defs></svg>